<svg width="38908" height="6473" xmlns="http://www.w3.org/2000/svg" xmlns:xlink="http://www.w3.org/1999/xlink" overflow="hidden"><defs><clipPath id="clip0"><rect x="-18814" y="-453" width="38908" height="6473"/></clipPath><linearGradient x1="640" y1="-447.859" x2="640" y2="5952.14" gradientUnits="userSpaceOnUse" spreadMethod="reflect" id="fill1"><stop offset="0" stop-color="#1F4E79"/><stop offset="0.5" stop-color="#5B9BD5"/><stop offset="1" stop-color="#9DC3E6"/></linearGradient></defs><g clip-path="url(#clip0)" transform="translate(18814 453)"><path d="M11080.9 3483.09C10826.4 3483.7 10649.9 3502.21 10551.3 3538.61 10446.2 3577.43 10396.4 3647.96 10401.9 3750.19 10397.4 3849.87 10442.5 3918.84 10537.3 3957.11 10632.1 3995.38 10804 4013.62 11052.8 4011.84 11380.2 4013.84 11605.8 3993.82 11729.8 3951.77 11853.7 3909.72 11912.6 3833.63 11906.5 3723.49 11906.3 3672.54 11892 3628.94 11863.8 3592.67 11835.6 3556.4 11794.7 3528.82 11741.1 3509.9 11715.1 3499.45 11656.4 3492.33 11565 3488.55 11473.7 3484.76 11329.6 3482.98 11132.9 3483.21 11115.2 3483.09 11097.9 3483.05 11080.9 3483.09ZM18025.6 2544.22C17746.5 2544.22 17555.1 2572.39 17451.3 2628.72 17340.5 2688.81 17286 2804.98 17287.9 2977.24L18807.8 2977.24C18806.1 2881.76 18800.3 2813.66 18790.5 2772.94 18780.7 2732.21 18761.6 2698.83 18733.2 2672.79 18692.1 2627.72 18619.6 2595.01 18515.9 2574.64 18412.1 2554.28 18267.6 2544.27 18082.6 2544.6 18063.2 2544.35 18044.2 2544.22 18025.6 2544.22ZM-13174.4 2544.22C-13453.5 2544.22-13644.9 2572.39-13748.7 2628.72-13859.5 2688.81-13914 2804.98-13912.1 2977.24L-12392.2 2977.24C-12393.9 2881.76-12399.7 2813.66-12409.5 2772.94-12419.3 2732.21-12438.4 2698.83-12466.8 2672.79-12507.9 2627.72-12580.4 2595.01-12684.1 2574.64-12787.9 2554.28-12932.4 2544.27-13117.4 2544.6-13136.8 2544.35-13155.8 2544.22-13174.4 2544.22ZM1901.65 2027.38 2844.93 2027.38 2844.93 4549.81 1901.65 4549.81ZM8304.13 1963.72C8661.75 1963.57 8915.2 2037.81 9064.48 2186.46 9218.58 2339.91 9293.03 2603.31 9287.8 2976.68L9287.8 3147.4 8397.19 3147.4C8400.86 2964.23 8366.86 2838.41 8295.2 2769.95 8223.54 2701.49 8092.21 2669.03 7901.22 2672.59 7793.56 2672.81 7698.24 2688.37 7615.24 2719.27 7532.25 2750.16 7467.58 2795.07 7421.25 2853.97 7376.7 2910.44 7345.81 2985.57 7328.59 3079.38 7311.37 3173.19 7303.15 3315.01 7303.93 3504.85L7303.93 4549.81 6360.65 4549.81 6360.65 2027.91 7250.6 2027.91 7250.6 2406.19 7298.6 2406.19C7383.04 2247.91 7500.8 2134.24 7651.91 2065.2 7803.01 1996.16 8008.77 1962.42 8269.2 1963.97 8280.95 1963.81 8292.6 1963.73 8304.13 1963.72ZM18066.5 1958.64C18348 1958.14 18576.8 1965.05 18752.9 1979.35 18929.1 1993.65 19070.6 2018.32 19177.4 2053.33 19284.2 2088.35 19374.3 2136.69 19447.8 2198.35 19558.7 2287.57 19638.2 2412.84 19686.4 2574.16 19734.7 2735.48 19758.2 2956.83 19757.1 3238.22 19757.2 3256.19 19757 3289.48 19756.4 3338.08 19755.9 3386.68 19754.3 3438.61 19751.8 3493.87L17287.9 3493.87C17287.2 3618.8 17295.4 3710.7 17312.6 3769.55 17329.8 3828.4 17360.7 3873.56 17405.3 3905.04 17454.9 3942.2 17531.6 3969.34 17635.2 3986.48 17738.9 4003.61 17875.6 4012.06 18045.2 4011.84 18337.9 4014.73 18533.9 3998.27 18633.2 3962.45 18732.5 3926.63 18787.2 3854.09 18797.2 3744.85L19735.8 3744.85C19717.1 3975.47 19654.3 4154.04 19547.1 4280.57 19440 4407.1 19261.8 4494.82 19012.5 4543.74 18763.1 4592.66 18415.8 4616.01 17970.6 4613.8 17610.8 4614.69 17330.4 4596.93 17129.3 4560.53 16928.2 4524.13 16773.1 4463.75 16664 4379.41 16543.3 4293.08 16459.3 4170.04 16412 4010.3 16364.7 3850.55 16342 3612.72 16344 3296.81 16341.5 2965.65 16365.1 2718.54 16414.7 2555.47 16464.2 2392.4 16554.4 2268.03 16685.3 2182.36 16764.4 2125.94 16859.3 2081.35 16969.9 2048.6 17080.6 2015.85 17223.3 1992.57 17397.9 1978.76 17572.6 1964.95 17795.5 1958.24 18066.5 1958.64ZM-13133.4 1958.64C-12852 1958.14-12623.2 1965.05-12447.1 1979.35-12270.9 1993.65-12129.4 2018.32-12022.6 2053.33-11915.8 2088.35-11825.6 2136.69-11752.2 2198.35-11641.3 2287.57-11561.8 2412.84-11513.6 2574.16-11465.3 2735.48-11441.8 2956.83-11442.9 3238.22-11442.8 3256.19-11443 3289.48-11443.6 3338.08-11444.1 3386.68-11445.7 3438.61-11448.2 3493.87L-13912.1 3493.87C-13912.8 3618.8-13904.6 3710.7-13887.4 3769.55-13870.2 3828.4-13839.3 3873.56-13794.7 3905.04-13745.1 3942.2-13668.4 3969.34-13564.8 3986.48-13461.1 4003.61-13324.4 4012.06-13154.8 4011.84-12862.1 4014.73-12666.1 3998.27-12566.8 3962.45-12467.5 3926.63-12412.8 3854.09-12402.8 3744.85L-11464.2 3744.85C-11482.9 3975.47-11545.7 4154.04-11652.8 4280.57-11760 4407.1-11938.2 4494.82-12187.5 4543.74-12436.9 4592.66-12784.2 4616.01-13229.4 4613.8-13589.2 4614.69-13869.6 4596.93-14070.7 4560.53-14271.8 4524.13-14426.9 4463.75-14536 4379.41-14656.7 4293.08-14740.7 4170.04-14788 4010.3-14835.3 3850.55-14858 3612.72-14856 3296.81-14858.5 2965.65-14834.9 2718.54-14785.3 2555.47-14735.8 2392.4-14645.6 2268.03-14514.7 2182.36-14435.6 2125.94-14340.7 2081.35-14230.1 2048.6-14119.4 2015.85-13976.7 1992.57-13802 1978.76-13627.4 1964.95-13404.5 1958.24-13133.4 1958.64ZM11514.7 1958.63C11739.5 1959.35 11919.6 1965.2 12055 1976.2 12209.7 1988.76 12330.4 2013.16 12416.9 2049.4 12503.5 2085.63 12580.3 2138.84 12647.3 2209.01 12726.1 2289.12 12781.6 2389.94 12813.8 2511.47 12846 2633 12861.6 2806 12860.4 3030.47L12860.4 4549.88 11954.5 4549.88 11954.5 4203.61 11917.2 4203.61C11878.1 4285.07 11830.8 4351.22 11775.1 4402.05 11719.4 4452.88 11649.4 4495.05 11565 4528.57 11493.7 4560.09 11383 4582.28 11232.9 4595.16 11082.8 4608.03 10857.4 4614.25 10556.7 4613.8 10144.8 4618.47 9857.17 4562.52 9693.83 4445.95 9530.49 4329.37 9452.11 4124.15 9458.66 3830.29 9458.1 3604.5 9501.85 3426.48 9589.89 3296.23 9677.94 3165.98 9813.61 3077.39 9996.91 3030.47 10070.6 3009.36 10154.1 2992.99 10247.4 2981.35 10340.7 2969.71 10459.8 2961.62 10604.7 2957.08 10749.6 2952.55 10936.4 2950.38 11164.9 2950.57 11376.7 2948.8 11531.9 2961.67 11630.4 2989.19 11728.9 3016.71 11812 3069.53 11879.8 3147.65L11922.5 3147.65 11922.5 3014.49C11931.3 2822.93 11895 2698.78 11813.8 2642.03 11732.5 2585.29 11553.6 2559.93 11276.9 2565.93 11054.5 2564.78 10889.3 2569.46 10781.1 2579.98 10673 2590.5 10601 2613.78 10565.2 2649.82 10529.3 2685.87 10508.7 2741.6 10503.3 2817.02L9559.91 2817.02C9571.68 2635.33 9612.1 2489.07 9681.15 2378.24 9750.21 2267.4 9857.24 2177.26 10002.2 2107.8 10109.4 2057.3 10277.6 2019.79 10506.8 1995.26 10736 1970.73 11038.9 1958.52 11415.6 1958.64 11449.6 1958.53 11482.6 1958.53 11514.7 1958.63ZM-9361.75 1958.6C-8987.19 1959.63-8697 1978.51-8491.18 2015.25-8271.63 2054.43-8105.42 2122.59-7992.54 2219.71-7892.88 2294.62-7821.55 2393.88-7778.55 2517.48-7735.56 2641.08-7710.89 2819.07-7704.56 3051.45L-8664.5 3051.45C-8676.05 2909.38-8739.6 2809.33-8855.15 2751.3-8970.7 2693.27-9164.91 2665.26-9437.78 2667.26-9757.21 2660.48-9968.97 2699.39-10073.1 2783.98-10177.2 2868.58-10225 3039.55-10216.4 3296.9-10217.7 3459.31-10201.7 3580.03-10168.4 3659.07-10135.1 3738.1-10076.4 3793.46-9992.41 3825.15-9935.53 3849.27-9858.64 3867.72-9761.76 3880.51-9664.88 3893.29-9553.33 3899.74-9427.12 3899.85-9155.58 3902.74-8965.37 3878.28-8856.49 3826.48-8747.6 3774.68-8685.39 3678.19-8669.83 3537.01L-7709.89 3537.01C-7716.33 3743.06-7736.78 3903.05-7771.22 4017-7805.66 4130.94-7863.44 4226.87-7944.54 4304.78-8020.75 4385.75-8116.02 4448.77-8230.35 4493.82-8344.68 4538.88-8500.79 4570.32-8698.67 4588.15-8896.55 4605.98-9158.92 4614.53-9485.78 4613.8-9864.62 4615.36-10154.8 4598.93-10356.2 4564.52-10557.7 4530.11-10717.1 4468.39-10834.6 4379.37-10955.4 4300.25-11040.2 4177.44-11089.1 4010.95-11137.9 3844.47-11161.5 3597.56-11159.7 3270.22-11161.2 2971.42-11139.5 2742.06-11094.4 2582.12-11049.3 2422.19-10971.6 2299.61-10861.2 2214.38-10784 2149.16-10688.6 2097.86-10575.2 2060.46-10461.8 2023.07-10314.3 1996.62-10132.7 1981.13-9951.18 1965.64-9719.52 1958.14-9437.78 1958.64-9412.06 1958.55-9386.72 1958.54-9361.75 1958.6ZM13555.3 1446.67 14498.6 1446.67 14498.6 2027.96 15991.8 2027.96 15991.8 2704.59 14498.6 2704.59 14498.6 3440.94C14497.9 3574.12 14500.6 3663.94 14506.6 3710.4 14512.6 3756.87 14525.9 3793.33 14546.6 3819.79 14569.8 3862.25 14607.3 3893.38 14659.2 3913.16 14711.1 3932.95 14782 3942.73 14871.9 3942.51 14967.4 3942.85 15043 3932.84 15098.5 3912.5 15154.1 3892.15 15192.3 3859.47 15213.2 3814.45 15228.8 3790.89 15239 3759.31 15243.9 3719.74 15248.8 3680.17 15251 3597.91 15250.5 3472.96L16114.5 3472.96C16110.8 3705.61 16095.5 3879.19 16068.5 3993.7 16041.5 4108.21 15992.8 4208.36 15922.5 4294.14 15832 4412.35 15700.9 4495.59 15529.2 4543.88 15357.4 4592.16 15111.6 4615.47 14791.9 4613.8 14496.9 4615.36 14272.6 4598.93 14118.9 4564.52 13965.2 4530.11 13844.9 4468.4 13757.8 4379.38 13692 4315.79 13643.8 4241.86 13613.3 4157.59 13582.7 4073.33 13565.2 3960.73 13560.6 3819.79 13558.1 3798.33 13556.5 3755.87 13556 3692.39 13555.4 3628.92 13555.2 3545.1 13555.3 3440.94L13555.3 2704.59 13059.3 2704.59 13059.3 2027.96 13555.3 2027.96ZM3555.3 1446.67 4498.58 1446.67 4498.58 2027.96 5991.82 2027.96 5991.82 2704.59 4498.58 2704.59 4498.58 3440.94C4497.91 3574.12 4500.58 3663.94 4506.58 3710.4 4512.58 3756.87 4525.91 3793.33 4546.57 3819.79 4569.79 3862.25 4607.35 3893.38 4659.23 3913.16 4711.12 3932.95 4782 3942.73 4871.89 3942.51 4967.44 3942.85 5042.99 3932.84 5098.54 3912.5 5154.09 3892.15 5192.31 3859.47 5213.2 3814.45 5228.75 3790.89 5238.97 3759.31 5243.86 3719.74 5248.75 3680.17 5250.97 3597.91 5250.53 3472.96L6114.47 3472.96C6110.81 3705.61 6095.47 3879.19 6068.48 3993.7 6041.48 4108.21 5992.82 4208.36 5922.49 4294.14 5832.05 4412.35 5700.95 4495.59 5529.18 4543.88 5357.41 4592.16 5111.65 4615.47 4791.89 4613.8 4496.91 4615.36 4272.58 4598.93 4118.9 4564.52 3965.22 4530.11 3844.85 4468.4 3757.81 4379.38 3691.97 4315.79 3643.79 4241.86 3613.26 4157.59 3582.72 4073.33 3565.18 3960.73 3560.63 3819.79 3558.08 3798.33 3556.52 3755.87 3555.97 3692.39 3555.41 3628.92 3555.19 3545.1 3555.3 3440.94L3555.3 2704.59 3059.33 2704.59 3059.33 2027.96 3555.3 2027.96ZM1901.65 993.363 2844.93 993.363 2844.93 1701.99 1901.65 1701.99ZM-3506.35 993.363-1607.8 993.363 253.416 3643.86 365.408 3643.86 338.744 993.363 1442.67 993.363 1442.67 4549.81-439.875 4549.81-2311.76 1893.97-2429.08 1893.97-2402.42 4549.81-3506.35 4549.81ZM-7373.35 993.363-6430.07 993.363-6430.07 2411.52-6387.39 2411.52C-6312.8 2252.79-6191.2 2137.35-6022.58 2065.2-5853.96 1993.05-5621.65 1957.53-5325.65 1958.64-5048.75 1957.75-4823.89 1982.17-4651.08 2031.9-4478.28 2081.63-4338.81 2161.99-4232.68 2272.99-4125.54 2377.43-4052.04 2505.56-4012.18 2657.4-3972.32 2809.24-3953.45 3029.48-3955.56 3318.12L-3955.56 4549.81-4898.83 4549.81-4898.83 3318.12C-4890.61 3050.59-4935.07 2873.43-5032.21 2786.62-5129.36 2699.82-5328.54 2660.03-5629.77 2667.26-5954.89 2658.81-6171.64 2709.05-6280.01 2817.97-6388.39 2926.89-6438.41 3145.18-6430.07 3472.84L-6430.07 4549.81-7373.35 4549.81ZM-18615.7 993.363-14312.6 993.363-14312.6 1899.31-15896.5 1899.31-15896.5 4549.81-17031.8 4549.81-17031.8 1899.31-18615.7 1899.31Z" fill="url(#fill1)" fill-rule="evenodd"/><text fill="#000000" fill-opacity="0" font-family="Arial,Arial_MSFontService,sans-serif" font-size="3620.71" x="-18615.7" y="4161.48">TechNitrate</text></g></svg>